<mxfile host="app.diagrams.net" modified="2024-06-24T04:44:21.081Z" agent="Mozilla/5.0 (Windows NT 10.0; Win64; x64) AppleWebKit/537.36 (KHTML, like Gecko) Chrome/126.0.0.0 Safari/537.36" etag="-MtXKnrACF64FNGNi-i9" version="24.6.2" type="device">
  <diagram id="Bo-0DSUboWInHEmX_0oF" name="Page-1">
    <mxGraphModel dx="882" dy="504" grid="1" gridSize="10" guides="1" tooltips="1" connect="1" arrows="1" fold="1" page="1" pageScale="1" pageWidth="850" pageHeight="1100" math="0" shadow="0">
      <root>
        <mxCell id="0" />
        <mxCell id="1" parent="0" />
        <mxCell id="tvLI8ggQVW391SQIJfqY-1" value="Admin" style="shape=umlActor;verticalLabelPosition=bottom;verticalAlign=top;html=1;outlineConnect=0;" parent="1" vertex="1">
          <mxGeometry x="40" y="285" width="30" height="60" as="geometry" />
        </mxCell>
        <mxCell id="tvLI8ggQVW391SQIJfqY-2" value="Login" style="ellipse;whiteSpace=wrap;html=1;" parent="1" vertex="1">
          <mxGeometry x="200" y="110" width="80" height="50" as="geometry" />
        </mxCell>
        <mxCell id="tvLI8ggQVW391SQIJfqY-3" value="Add Doctor details" style="ellipse;whiteSpace=wrap;html=1;" parent="1" vertex="1">
          <mxGeometry x="200" y="170" width="80" height="50" as="geometry" />
        </mxCell>
        <mxCell id="tvLI8ggQVW391SQIJfqY-5" value="Edit Doctor&lt;div&gt;Details&lt;/div&gt;" style="ellipse;whiteSpace=wrap;html=1;" parent="1" vertex="1">
          <mxGeometry x="200" y="230" width="80" height="50" as="geometry" />
        </mxCell>
        <mxCell id="tvLI8ggQVW391SQIJfqY-7" value="Edit Hospital&lt;div&gt;Details&lt;/div&gt;" style="ellipse;whiteSpace=wrap;html=1;" parent="1" vertex="1">
          <mxGeometry x="200" y="290" width="80" height="50" as="geometry" />
        </mxCell>
        <mxCell id="tvLI8ggQVW391SQIJfqY-9" value="Update Doctor Details" style="ellipse;whiteSpace=wrap;html=1;" parent="1" vertex="1">
          <mxGeometry x="200" y="350" width="80" height="50" as="geometry" />
        </mxCell>
        <mxCell id="tvLI8ggQVW391SQIJfqY-11" value="Verify Doctors details" style="ellipse;whiteSpace=wrap;html=1;" parent="1" vertex="1">
          <mxGeometry x="195" y="410" width="90" height="50" as="geometry" />
        </mxCell>
        <mxCell id="tvLI8ggQVW391SQIJfqY-14" value="Logout" style="ellipse;whiteSpace=wrap;html=1;" parent="1" vertex="1">
          <mxGeometry x="195" y="470" width="90" height="50" as="geometry" />
        </mxCell>
        <mxCell id="tvLI8ggQVW391SQIJfqY-17" value="" style="swimlane;startSize=0;" parent="1" vertex="1">
          <mxGeometry x="120" y="90" width="240" height="450" as="geometry" />
        </mxCell>
        <mxCell id="tvLI8ggQVW391SQIJfqY-18" value="" style="endArrow=classic;html=1;rounded=0;exitX=0.5;exitY=0.5;exitDx=0;exitDy=0;exitPerimeter=0;" parent="tvLI8ggQVW391SQIJfqY-17" source="tvLI8ggQVW391SQIJfqY-1" edge="1">
          <mxGeometry width="50" height="50" relative="1" as="geometry">
            <mxPoint x="30" y="100" as="sourcePoint" />
            <mxPoint x="80" y="50" as="targetPoint" />
          </mxGeometry>
        </mxCell>
        <mxCell id="tvLI8ggQVW391SQIJfqY-19" value="" style="endArrow=classic;html=1;rounded=0;exitX=0.5;exitY=0.5;exitDx=0;exitDy=0;exitPerimeter=0;" parent="tvLI8ggQVW391SQIJfqY-17" source="tvLI8ggQVW391SQIJfqY-1" edge="1">
          <mxGeometry width="50" height="50" relative="1" as="geometry">
            <mxPoint x="30" y="160" as="sourcePoint" />
            <mxPoint x="80" y="110" as="targetPoint" />
          </mxGeometry>
        </mxCell>
        <mxCell id="tvLI8ggQVW391SQIJfqY-20" value="" style="endArrow=classic;html=1;rounded=0;exitX=0.5;exitY=0.5;exitDx=0;exitDy=0;exitPerimeter=0;" parent="tvLI8ggQVW391SQIJfqY-17" source="tvLI8ggQVW391SQIJfqY-1" edge="1">
          <mxGeometry width="50" height="50" relative="1" as="geometry">
            <mxPoint x="30" y="220" as="sourcePoint" />
            <mxPoint x="80" y="170" as="targetPoint" />
          </mxGeometry>
        </mxCell>
        <mxCell id="tvLI8ggQVW391SQIJfqY-21" value="" style="endArrow=classic;html=1;rounded=0;exitX=0.5;exitY=0.5;exitDx=0;exitDy=0;exitPerimeter=0;" parent="tvLI8ggQVW391SQIJfqY-17" source="tvLI8ggQVW391SQIJfqY-1" edge="1">
          <mxGeometry width="50" height="50" relative="1" as="geometry">
            <mxPoint x="30" y="280" as="sourcePoint" />
            <mxPoint x="80" y="230" as="targetPoint" />
          </mxGeometry>
        </mxCell>
        <mxCell id="tvLI8ggQVW391SQIJfqY-22" value="" style="endArrow=classic;html=1;rounded=0;exitX=0.5;exitY=0.5;exitDx=0;exitDy=0;exitPerimeter=0;" parent="tvLI8ggQVW391SQIJfqY-17" source="tvLI8ggQVW391SQIJfqY-1" edge="1">
          <mxGeometry width="50" height="50" relative="1" as="geometry">
            <mxPoint x="30" y="340" as="sourcePoint" />
            <mxPoint x="80" y="290" as="targetPoint" />
          </mxGeometry>
        </mxCell>
        <mxCell id="tvLI8ggQVW391SQIJfqY-23" value="" style="endArrow=classic;html=1;rounded=0;exitX=0.5;exitY=0.5;exitDx=0;exitDy=0;exitPerimeter=0;" parent="tvLI8ggQVW391SQIJfqY-17" source="tvLI8ggQVW391SQIJfqY-1" edge="1">
          <mxGeometry width="50" height="50" relative="1" as="geometry">
            <mxPoint x="30" y="390" as="sourcePoint" />
            <mxPoint x="80" y="340" as="targetPoint" />
          </mxGeometry>
        </mxCell>
        <mxCell id="tvLI8ggQVW391SQIJfqY-24" value="" style="endArrow=classic;html=1;rounded=0;exitX=0.5;exitY=0.5;exitDx=0;exitDy=0;exitPerimeter=0;" parent="tvLI8ggQVW391SQIJfqY-17" source="tvLI8ggQVW391SQIJfqY-1" edge="1">
          <mxGeometry width="50" height="50" relative="1" as="geometry">
            <mxPoint x="30" y="450" as="sourcePoint" />
            <mxPoint x="80" y="400" as="targetPoint" />
          </mxGeometry>
        </mxCell>
        <mxCell id="tvLI8ggQVW391SQIJfqY-25" value="&lt;b&gt;USE CASE DIAGRAM&lt;/b&gt;" style="text;html=1;align=center;verticalAlign=middle;resizable=0;points=[];autosize=1;strokeColor=none;fillColor=none;" parent="1" vertex="1">
          <mxGeometry x="355" y="21" width="150" height="30" as="geometry" />
        </mxCell>
        <mxCell id="tvLI8ggQVW391SQIJfqY-26" value="" style="swimlane;startSize=0;" parent="1" vertex="1">
          <mxGeometry x="590" y="95" width="220" height="505" as="geometry" />
        </mxCell>
        <mxCell id="tvLI8ggQVW391SQIJfqY-28" value="Login" style="ellipse;whiteSpace=wrap;html=1;" parent="tvLI8ggQVW391SQIJfqY-26" vertex="1">
          <mxGeometry x="70" y="25" width="80" height="50" as="geometry" />
        </mxCell>
        <mxCell id="tvLI8ggQVW391SQIJfqY-29" value="Check Patient Info" style="ellipse;whiteSpace=wrap;html=1;" parent="tvLI8ggQVW391SQIJfqY-26" vertex="1">
          <mxGeometry x="70" y="85" width="80" height="50" as="geometry" />
        </mxCell>
        <mxCell id="tvLI8ggQVW391SQIJfqY-31" value="Choose a Patient info" style="ellipse;whiteSpace=wrap;html=1;" parent="tvLI8ggQVW391SQIJfqY-26" vertex="1">
          <mxGeometry x="70" y="145" width="80" height="50" as="geometry" />
        </mxCell>
        <mxCell id="tvLI8ggQVW391SQIJfqY-37" value="Edit Patient Revisit date" style="ellipse;whiteSpace=wrap;html=1;" parent="tvLI8ggQVW391SQIJfqY-26" vertex="1">
          <mxGeometry x="70" y="202.5" width="80" height="50" as="geometry" />
        </mxCell>
        <mxCell id="tvLI8ggQVW391SQIJfqY-39" value="CRUD operations of their account" style="ellipse;whiteSpace=wrap;html=1;" parent="tvLI8ggQVW391SQIJfqY-26" vertex="1">
          <mxGeometry x="70" y="265" width="80" height="50" as="geometry" />
        </mxCell>
        <mxCell id="tvLI8ggQVW391SQIJfqY-40" value="Logout" style="ellipse;whiteSpace=wrap;html=1;" parent="tvLI8ggQVW391SQIJfqY-26" vertex="1">
          <mxGeometry x="70" y="325" width="80" height="50" as="geometry" />
        </mxCell>
        <mxCell id="tvLI8ggQVW391SQIJfqY-41" value="" style="endArrow=classic;html=1;rounded=0;exitX=0.5;exitY=0.5;exitDx=0;exitDy=0;exitPerimeter=0;" parent="tvLI8ggQVW391SQIJfqY-26" source="tvLI8ggQVW391SQIJfqY-27" edge="1">
          <mxGeometry width="50" height="50" relative="1" as="geometry">
            <mxPoint x="20" y="105" as="sourcePoint" />
            <mxPoint x="70" y="55" as="targetPoint" />
          </mxGeometry>
        </mxCell>
        <mxCell id="tvLI8ggQVW391SQIJfqY-51" value="" style="endArrow=classic;html=1;rounded=0;exitX=0.5;exitY=0.5;exitDx=0;exitDy=0;exitPerimeter=0;" parent="tvLI8ggQVW391SQIJfqY-26" source="tvLI8ggQVW391SQIJfqY-27" edge="1">
          <mxGeometry width="50" height="50" relative="1" as="geometry">
            <mxPoint x="20" y="225" as="sourcePoint" />
            <mxPoint x="70" y="175" as="targetPoint" />
          </mxGeometry>
        </mxCell>
        <mxCell id="tvLI8ggQVW391SQIJfqY-52" value="" style="endArrow=classic;html=1;rounded=0;exitX=0.5;exitY=0.5;exitDx=0;exitDy=0;exitPerimeter=0;" parent="tvLI8ggQVW391SQIJfqY-26" source="tvLI8ggQVW391SQIJfqY-27" edge="1">
          <mxGeometry width="50" height="50" relative="1" as="geometry">
            <mxPoint x="20" y="285" as="sourcePoint" />
            <mxPoint x="70" y="235" as="targetPoint" />
          </mxGeometry>
        </mxCell>
        <mxCell id="qAOWpuYLg04lPRU-8gie-3" value="See the Payment details" style="ellipse;whiteSpace=wrap;html=1;" parent="tvLI8ggQVW391SQIJfqY-26" vertex="1">
          <mxGeometry x="70" y="385" width="80" height="50" as="geometry" />
        </mxCell>
        <mxCell id="tvLI8ggQVW391SQIJfqY-27" value="Doctor" style="shape=umlActor;verticalLabelPosition=bottom;verticalAlign=top;html=1;outlineConnect=0;" parent="1" vertex="1">
          <mxGeometry x="470" y="285" width="30" height="60" as="geometry" />
        </mxCell>
        <mxCell id="tvLI8ggQVW391SQIJfqY-50" value="" style="endArrow=classic;html=1;rounded=0;exitX=0.5;exitY=0.5;exitDx=0;exitDy=0;exitPerimeter=0;entryX=0;entryY=0.8;entryDx=0;entryDy=0;entryPerimeter=0;" parent="1" source="tvLI8ggQVW391SQIJfqY-27" target="tvLI8ggQVW391SQIJfqY-29" edge="1">
          <mxGeometry width="50" height="50" relative="1" as="geometry">
            <mxPoint x="495" y="325" as="sourcePoint" />
            <mxPoint x="670" y="150" as="targetPoint" />
          </mxGeometry>
        </mxCell>
        <mxCell id="tvLI8ggQVW391SQIJfqY-53" value="" style="endArrow=classic;html=1;rounded=0;exitX=0.5;exitY=0.5;exitDx=0;exitDy=0;exitPerimeter=0;entryX=0;entryY=0.5;entryDx=0;entryDy=0;" parent="1" source="tvLI8ggQVW391SQIJfqY-27" target="tvLI8ggQVW391SQIJfqY-39" edge="1">
          <mxGeometry width="50" height="50" relative="1" as="geometry">
            <mxPoint x="620" y="420" as="sourcePoint" />
            <mxPoint x="670" y="370" as="targetPoint" />
          </mxGeometry>
        </mxCell>
        <mxCell id="tvLI8ggQVW391SQIJfqY-54" value="" style="endArrow=classic;html=1;rounded=0;exitX=0.5;exitY=0.5;exitDx=0;exitDy=0;exitPerimeter=0;entryX=0;entryY=0.5;entryDx=0;entryDy=0;" parent="1" source="tvLI8ggQVW391SQIJfqY-27" target="tvLI8ggQVW391SQIJfqY-40" edge="1">
          <mxGeometry width="50" height="50" relative="1" as="geometry">
            <mxPoint x="620" y="490" as="sourcePoint" />
            <mxPoint x="670" y="440" as="targetPoint" />
          </mxGeometry>
        </mxCell>
        <mxCell id="tvLI8ggQVW391SQIJfqY-71" value="" style="text;strokeColor=none;fillColor=none;align=left;verticalAlign=middle;spacingTop=-1;spacingLeft=4;spacingRight=4;rotatable=0;labelPosition=right;points=[];portConstraint=eastwest;" parent="1" vertex="1">
          <mxGeometry x="405" y="7" width="20" height="14" as="geometry" />
        </mxCell>
        <mxCell id="tvLI8ggQVW391SQIJfqY-72" value="" style="text;strokeColor=none;fillColor=none;align=left;verticalAlign=middle;spacingTop=-1;spacingLeft=4;spacingRight=4;rotatable=0;labelPosition=right;points=[];portConstraint=eastwest;" parent="1" vertex="1">
          <mxGeometry y="327" width="20" height="14" as="geometry" />
        </mxCell>
        <mxCell id="tvLI8ggQVW391SQIJfqY-73" value="" style="text;strokeColor=none;fillColor=none;align=left;verticalAlign=middle;spacingTop=-1;spacingLeft=4;spacingRight=4;rotatable=0;labelPosition=right;points=[];portConstraint=eastwest;" parent="1" vertex="1">
          <mxGeometry x="820" y="290" width="20" height="14" as="geometry" />
        </mxCell>
        <mxCell id="qAOWpuYLg04lPRU-8gie-1" value="&lt;b&gt;Hospital Management System&lt;/b&gt;" style="text;html=1;align=center;verticalAlign=middle;resizable=0;points=[];autosize=1;strokeColor=none;fillColor=none;" parent="1" vertex="1">
          <mxGeometry x="335" y="40" width="190" height="30" as="geometry" />
        </mxCell>
        <mxCell id="qAOWpuYLg04lPRU-8gie-5" value="" style="endArrow=classic;html=1;rounded=0;entryX=0;entryY=0.5;entryDx=0;entryDy=0;" parent="1" source="tvLI8ggQVW391SQIJfqY-27" target="qAOWpuYLg04lPRU-8gie-3" edge="1">
          <mxGeometry width="50" height="50" relative="1" as="geometry">
            <mxPoint x="620" y="540" as="sourcePoint" />
            <mxPoint x="670" y="490" as="targetPoint" />
          </mxGeometry>
        </mxCell>
        <mxCell id="jgmwM-D07min5CFFoBxr-3" value="" style="text;strokeColor=none;fillColor=none;align=left;verticalAlign=middle;spacingTop=-1;spacingLeft=4;spacingRight=4;rotatable=0;labelPosition=right;points=[];portConstraint=eastwest;" vertex="1" parent="1">
          <mxGeometry x="720" y="650" width="20" height="14" as="geometry" />
        </mxCell>
      </root>
    </mxGraphModel>
  </diagram>
</mxfile>
